<svg width="32" height="32" xmlns="http://www.w3.org/2000/svg">
    <g fill="none" fill-rule="evenodd">
        <path d="M16 29.193c7.286 0 13.193-5.907 13.193-13.193S23.286 2.807 16 2.807 2.807 8.714 2.807 16 8.714 29.193 16 29.193z" fill="#27363E" fill-rule="nonzero"/>
        <path d="M32 16c0 8.837-7.163 16-16 16S0 24.837 0 16 7.163 0 16 0s16 7.163 16 16zm-1.684 0c0 7.906-6.41 14.316-14.316 14.316-7.906 0-14.316-6.41-14.316-14.316C1.684 8.094 8.094 1.684 16 1.684c7.906 0 14.316 6.41 14.316 14.316z" fill="#27363E"/>
        <g fill-rule="nonzero">
            <path d="M7.944 21.832c.796.806 5.155 4.647 12.018.19 4.956-3.683 4.84-11.665 4.359-14.068-.166.348-5.918 12.36-16.377 13.878zM24.321 7.954c-.067-.016-6.431-.853-12.73 3.02-3.928 2.402-4.442 5.91-4.26 8.266 9.166-.98 16.774-11.017 16.99-11.286z" fill="#97C554"/>
            <path d="M24.32 7.954c-.065-.016-6.43-.853-12.729 3.02-3.928 2.402-4.442 5.91-4.26 8.266 9.166-.98 16.774-11.017 16.99-11.286h-.001z" fill="#709B30"/>
        </g>
    </g>
</svg>
