<svg width="24" height="24" xmlns="http://www.w3.org/2000/svg">
    <path d="M22.603 2.77c.727 0 1.323.53 1.39 1.213l.007.13v14.136c0 .7-.553 1.27-1.263 1.338l-.134.007h-7.657l.006.05v.85c0 .158.168.374.36.586l.376.398c.054.06.1.113.133.16.045.033.08.078.093.13l.008.056v.088c0 .115-.084.21-.195.235l-.058.007H8.164a.25.25 0 0 1-.246-.186l-.006-.056v-.088a.23.23 0 0 1 .098-.185c.033-.046.08-.1.133-.16l.376-.399c.161-.176.305-.356.348-.502l.014-.084v-.85l.005-.05H1.394C.668 19.59.074 19.06.006 18.378L0 18.248V4.113c0-.7.552-1.272 1.26-1.337l.134-.006h21.209zm.223 1.199H1.174v14.425h21.652V3.97zM12 3.119a.25.25 0 0 0-.256.246.25.25 0 0 0 .256.243.25.25 0 0 0 .254-.243A.25.25 0 0 0 12 3.12z" fill="#2043B5" fill-rule="evenodd"/>
</svg>
