<svg width="32" height="32" xmlns="http://www.w3.org/2000/svg"><g fill="none" fill-rule="evenodd"><circle fill="#092553" cx="16" cy="16" r="16"/><g fill-rule="nonzero"><path fill="#DBD9D9" d="M5.05 27V5"/><path d="M14.843 14.816c.778.19 1.591.19 2.37 0a4.988 4.988 0 0 1 3.652-3.653 4.98 4.98 0 1 0-9.675 0 4.986 4.986 0 0 1 3.653 3.653Z" fill="#7ABDF7"/><path d="M17.212 17.184a4.98 4.98 0 0 0-2.369 0 4.988 4.988 0 0 1-3.652 3.652 4.98 4.98 0 1 0 9.674 0 4.986 4.986 0 0 1-3.653-3.652Z" fill="#0D74F5"/><path d="M22.049 11.02c-.399 0-.796.048-1.184.143a4.985 4.985 0 0 1-3.652 3.652 4.98 4.98 0 0 0 0 2.369 4.986 4.986 0 0 1 3.652 3.652 4.98 4.98 0 1 0 1.184-9.817v.001Z" fill="#4494F7"/><path d="M14.843 17.184a4.98 4.98 0 0 0 0-2.37 4.986 4.986 0 0 1-3.652-3.651 4.98 4.98 0 1 0 0 9.674 4.987 4.987 0 0 1 3.652-3.653Z" fill="#005CF4"/><path d="M17.212 14.816a4.988 4.988 0 0 0 3.653-3.653 4.988 4.988 0 0 0-3.653 3.653Z" fill="#186EF9"/><path d="M17.212 17.184a4.986 4.986 0 0 0 3.653 3.652 4.988 4.988 0 0 0-3.653-3.652Z" fill="#0246F2"/><path d="M14.843 14.816a4.988 4.988 0 0 0-3.652-3.653 4.988 4.988 0 0 0 3.652 3.653Z" fill="#0046F8"/><path d="M14.843 17.184a4.988 4.988 0 0 0-3.652 3.652 4.988 4.988 0 0 0 3.652-3.652Z" fill="#0729F1"/></g></g></svg>