<svg width="32" height="32" xmlns="http://www.w3.org/2000/svg"><defs><linearGradient x1="20.278%" y1="3.026%" x2="85.963%" y2="106.838%" id="a"><stop stop-color="#0069EB" offset="15%"/><stop stop-color="#0C78ED" offset="100%"/></linearGradient><linearGradient x1="19.602%" y1="1.957%" x2="77.187%" y2="92.967%" id="b"><stop stop-color="#0097FF" offset="0%"/><stop stop-color="#005AEA" offset="100%"/></linearGradient></defs><g fill-rule="nonzero" fill="none"><path d="M29.4 32H2.6C1.2 32 0 30.8 0 29.4V2.6C0 1.2 1.2 0 2.6 0h26.7C30.8 0 32 1.2 32 2.6v26.7c0 1.5-1.2 2.7-2.6 2.7Z" fill="url(#a)"/><path d="M32 20.1V2.6C32 1.2 30.8 0 29.4 0H2.6C1.2 0 0 1.2 0 2.6v26.7C0 30.8 1.2 32 2.6 32h17.8L32 20.1Z" fill="url(#b)" opacity=".5"/><path d="m27.7 15.5-5.3-5.3c-.1-.2-.4-.3-.8-.3-.3 0-.6.1-.9.4l-5.2 5.3-2.9 2.9v-7.3c0-.7-.5-1.2-1.2-1.2s-1.2.5-1.2 1.2v7.3L7 15.3c-.5-.5-1.2-.5-1.7 0s-.5 1.2 0 1.7l5.3 5.3c.2.2.5.3.9.3.3 0 .6-.1.9-.4l5.2-5.3 2.9-2.9v7.3c0 .7.5 1.2 1.2 1.2s1.2-.5 1.2-1.2V14l3.2 3.2c.2.2.5.3.9.3.3 0 .6-.1.9-.4.3-.4.3-1.2-.2-1.6Z" fill="#FFF"/></g></svg>